PathFileType	4	(X/Y/Z)	RBDS013\RBDS013runT35.trc
DataRate	CameraRate	NumFrames	NumMarkers	Units	OrigDataRate	OrigDataStartFrame	OrigNumFrames
150.000000	150.000000	4	33	mm	150.000000	1125	4500
Frame#	Time	L.ASIS			L.Heel.Bottom			L.Heel.Lateral			L.Heel.Top			L.Iliac.Crest			L.MT1			L.MT5			L.PSIS			L.Shank.Bottom.Lateral			L.Shank.Bottom.Medial			L.Shank.Top.Lateral			L.Shank.Top.Medial			L.Thigh.Bottom.Lateral			L.Thigh.Bottom.Medial			L.Thigh.Top.Lateral			L.Thigh.Top.Medial			R.ASIS			R.ASY			R.Heel.Bottom			R.Heel.Lateral			R.Heel.Top			R.Iliac.Crest			R.MT1			R.MT5			R.PSIS			R.Shank.Bottom.Lateral			R.Shank.Bottom.Medial			R.Shank.Top.Lateral			R.Shank.Top.Medial			R.Thigh.Bottom.Lateral			R.Thigh.Bottom.Medial			R.Thigh.Top.Lateral			R.Thigh.Top.Medial			
		X1	Y1	Z1	X2	Y2	Z2	X3	Y3	Z3	X4	Y4	Z4	X5	Y5	Z5	X6	Y6	Z6	X7	Y7	Z7	X8	Y8	Z8	X9	Y9	Z9	X10	Y10	Z10	X11	Y11	Z11	X12	Y12	Z12	X13	Y13	Z13	X14	Y14	Z14	X15	Y15	Z15	X16	Y16	Z16	X17	Y17	Z17	X18	Y18	Z18	X19	Y19	Z19	X20	Y20	Z20	X21	Y21	Z21	X22	Y22	Z22	X23	Y23	Z23	X24	Y24	Z24	X25	Y25	Z25	X26	Y26	Z26	X27	Y27	Z27	X28	Y28	Z28	X29	Y29	Z29	X30	Y30	Z30	X31	Y31	Z31	X32	Y32	Z32	X33	Y33	Z33	

1126	7.500000000000001	2336.466976890669	931.769848422651	934.7282247597738	1734.586892469157	251.1348280093619	1040.137081260184	1756.743194271647	239.8866693992272	992.9246545556938	1773.58902798785	273.1825223038509	1025.821680569788	2315.278381449601	1014.762300019113	913.294240196402	1889.189962514737	106.6119490753251	1058.544853209389	1831.013627796983	101.2341472337399	964.0483945552032	2191.569679245572	1008.102296451511	1013.915020909996	1856.088129057796	301.3862407660768	958.9491103014926	1830.072044881026	325.3036431256226	1002.135312897008	1893.065475923085	371.2951778819395	944.119518091441	1869.581873208354	394.5359004062176	986.8736142044393	2126.373033012775	625.6579842090222	903.356002531933	2072.102096739555	655.096036349417	942.3723435089257	2166.027706087602	727.5072913196387	886.4038398923451	2115.280665253835	755.2150837050406	924.4918374225659	2351.539126901375	948.4288337965191	1160.004879259167	2410.962046040815	186.0512213177797	1123.744314890811	2225.146420664644	228.3738320599209	1100.294892237094	2253.123834167823	234.363460586763	1142.063018544037	2257.8622858341	267.2497405881094	1101.195563148913	2308.952611858029	1023.285617760627	1205.755455579211	2413.651276943382	139.6620419768918	1078.801423000114	2380.291670003171	146.7771731531223	1181.403824360866	2192.920625001721	1007.722457107125	1115.711236018466	2337.189891964352	311.0490073964701	1159.424527996243	2307.538666336382	329.8366251137055	1121.666524797276	2367.693890230597	389.751192724451	1170.633222306883	2334.602316947031	405.6509862287414	1131.832652405634	2453.782595806165	696.0953408647795	1208.924224650662	2405.700050077093	648.9091669587929	1178.824826104123	2371.064023957226	766.412982873959	1224.025331857891	2325.089988155157	721.8598176369254	1196.746708439316	
1127	7.506666666666667	2338.093800144819	934.6675414293665	935.3920497707846	1722.204351025662	270.1482853545072	1041.86813363386	1742.90073876446	258.2052732672771	994.1462048059931	1761.839344198863	290.638828236608	1026.733166647005	2317.491686275277	1017.983805781046	913.6987071164749	1871.269744526463	119.0007531386062	1056.271029936477	1810.966197220754	116.4036636934498	963.115887865787	2193.354107652938	1012.082499076444	1013.412022166764	1844.093507515373	315.3514497158552	958.9023174657772	1819.571537589894	339.805558550894	1002.590472424949	1883.670196868314	383.7728956472253	944.1821963483596	1861.620163802287	407.5133811365693	987.2750767931188	2125.01126123506	630.5567167401513	902.5266381077968	2070.882525086037	660.3080188226359	941.4166817205758	2165.544990250258	732.10428763633	885.9289951496437	2114.851457210761	760.1022599897902	923.9232677519975	2351.601074899683	950.3689115107378	1160.595814943456	2439.083328097583	179.2915071039916	1123.223340134538	2250.53591511285	206.4268444564543	1099.000870976971	2277.64071564623	214.5439872119397	1141.040533238419	2279.933728668717	247.8615128789821	1100.379609035428	2309.288327481953	1026.377663294841	1206.063180169673	2445.621591394894	133.6444546973939	1077.933960596381	2411.286471482608	137.4144591478832	1180.414943282462	2194.194244524425	1010.956779231064	1115.241584537255	2354.767467056572	298.4636362007757	1158.724801303575	2324.579179124429	314.8719298038575	1120.218191526479	2379.216471354945	379.1638118234652	1170.150659789232	2345.9653263827	392.4391645856794	1130.507309759886	2451.483798400581	695.1458784949328	1207.991504001988	2402.569505517848	648.4327770164565	1178.513617027222	2369.786772910255	766.5753429200558	1223.088424109288	2323.133941916244	722.6878995632973	1195.921446796269	
1128	7.513333333333334	2339.469109569016	937.4359309934916	935.892254980494	1709.967633364028	289.648528130497	1043.764094765858	1729.279013727055	277.2422647518871	995.5683728291215	1750.184514131509	308.6181459541664	1027.951615642502	2318.789639049986	1020.885549409206	913.9902480173503	1853.067195197287	132.3160270914317	1054.176801799696	1791.038013041592	132.9598917758409	962.1702852810865	2194.782823734526	1015.537071769753	1013.081657370762	1832.362642447583	329.941943780069	959.2106331655493	1809.535943578206	354.9454428140048	1003.437955308068	1874.791240966056	396.5934227115155	944.5404015878362	1854.404174709472	420.8403426802379	988.0229895647569	2124.819255879589	634.4782479920074	901.7643919834122	2070.591141758262	664.3984973042218	940.286168092621	2165.828455610238	735.867548474655	885.4227560321276	2114.984063470661	764.0005875121207	923.1176907787452	2351.545994517653	951.6627376850354	1161.226604755882	2466.539940091417	173.8255884740753	1122.501236113472	2276.544256094169	185.7884203582011	1097.963468490736	2302.753672381035	195.8777263667414	1140.215205523559	2302.467593342631	229.4866496058955	1099.826676582037	2309.451370732067	1028.582083082759	1206.362050858574	2476.728111704611	129.3579071772418	1076.764533362275	2442.034100820739	129.5382304859596	1179.223511207696	2195.189802424169	1013.455088694457	1114.853209098591	2372.43016791796	286.447080062143	1158.155708324663	2341.767795900199	300.5526694583954	1119.067172721527	2390.766182108542	368.6107752074672	1169.94169206449	2357.45296733287	379.3710640249602	1129.60671130845	2448.084987945815	692.7039097145984	1207.310135735138	2398.39987691041	646.8606281537858	1177.956553418674	2367.692409703091	765.5197509648254	1222.293980770886	2320.352986646305	722.6110455428238	1194.834479316747	
1129	7.52	2340.640130098197	940.0444412620985	936.2097844462943	1698.090173486213	309.6764976319559	1045.693101683536	1716.138323563111	296.9922196631656	997.0784110421612	1738.874383617724	327.1209278982906	1029.362995953344	2319.253326339726	1023.508250175087	914.1957090044482	1834.709415702031	146.4636113483694	1052.268073493247	1771.440822621617	150.7668887046144	961.1867031885477	2195.866675550698	1018.416182448648	1012.953361529648	1821.079275765164	345.1020469892445	959.7967418773615	1800.116445726545	370.6287409345089	1004.599602368623	1866.528217952307	409.7166160293066	945.150657937818	1847.990513984585	434.443775799082	989.0715944898792	2125.65732840061	637.4229699313993	901.1033109274354	2071.126966558471	667.4198227496292	939.049961196574	2166.805422289841	738.7826267658953	884.8851842030905	2115.648623286939	766.9421365837716	922.1129876881965	2351.434997126951	952.3549329254471	1161.843147867683	2493.032211728474	169.6379753169816	1121.607537435035	2302.80652784081	166.6677709784061	1097.151186332602	2328.130692745273	178.5461768087825	1139.557771555818	2325.154981267116	212.310739503223	1099.514651952063	2309.45368251312	1029.894749640079	1206.634568613151	2506.620097715643	126.7537322967762	1075.321241687739	2472.186818073827	123.1552522468034	1177.839168370437	2195.918237067007	1015.203162918729	1114.588860548133	2389.992491398407	275.1321144594502	1157.721754099752	2358.864859757276	287.0172038196429	1118.248334462274	2402.222930886235	358.2405936248098	1169.993053148422	2368.871255326724	366.6040954462808	1129.15894361289	2443.67737882118	688.9198960522307	1206.901805848179	2393.318067757905	644.3438879786515	1177.128700725642	2364.86632377023	763.3653150783565	1221.666594576181	2316.863170695984	721.7376392577341	1193.506501252855	
